<svg width="50" height="50" viewBox="0 0 50 50" fill="none" xmlns="http://www.w3.org/2000/svg">
<path d="M17.2228 30.5834C16.8394 30.5834 16.5811 30.6209 16.4478 30.6584V33.1125C16.6061 33.15 16.804 33.1605 17.0769 33.1605C18.0748 33.1605 18.6894 32.6563 18.6894 31.8042C18.6894 31.0417 18.1603 30.5834 17.2228 30.5834ZM24.4873 30.6084C24.0707 30.6084 23.7998 30.6459 23.6394 30.6834V36.1209C23.7998 36.1584 24.0582 36.1584 24.2915 36.1584C25.9936 36.1709 27.1019 35.2334 27.1019 33.25C27.1144 31.5209 26.104 30.6084 24.4873 30.6084Z" fill="#6FC9D4"/>
<path d="M29.1668 4.16663H12.5002C11.3951 4.16663 10.3353 4.60561 9.55388 5.38701C8.77248 6.16842 8.3335 7.22822 8.3335 8.33329V41.6666C8.3335 42.7717 8.77248 43.8315 9.55388 44.6129C10.3353 45.3943 11.3951 45.8333 12.5002 45.8333H37.5002C38.6052 45.8333 39.665 45.3943 40.4464 44.6129C41.2278 43.8315 41.6668 42.7717 41.6668 41.6666V16.6666L29.1668 4.16663ZM19.7877 33.7291C19.1439 34.3333 18.1939 34.6041 17.0877 34.6041C16.8731 34.6082 16.6586 34.5956 16.446 34.5666V37.5375H14.5835V29.3375C15.4241 29.2125 16.2733 29.1553 17.1231 29.1666C18.2835 29.1666 19.1085 29.3875 19.6647 29.8312C20.1939 30.252 20.5522 30.9416 20.5522 31.7541C20.5502 32.5708 20.2793 33.2604 19.7877 33.7291ZM27.7189 36.552C26.8439 37.2791 25.5127 37.625 23.8856 37.625C22.9106 37.625 22.221 37.5625 21.7522 37.5V29.3395C22.5931 29.2172 23.4421 29.1594 24.2918 29.1666C25.8689 29.1666 26.8939 29.45 27.6939 30.0541C28.5585 30.6958 29.1002 31.7187 29.1002 33.1875C29.1002 34.777 28.5189 35.875 27.7189 36.552ZM35.4168 30.7708H32.2252V32.6687H35.2085V34.1979H32.2252V37.5395H30.3377V29.2291H35.4168V30.7708ZM29.1668 18.75H27.0835V8.33329L37.5002 18.75H29.1668Z" fill="#6FC9D4"/>
</svg>
