<svg width="50" height="50" viewBox="0 0 50 50" fill="none" xmlns="http://www.w3.org/2000/svg">
<path d="M31.4 33.8001V37.0001H9V33.8001C9 33.8001 9 27.4001 20.2 27.4001C31.4 27.4001 31.4 33.8001 31.4 33.8001ZM25.8 18.6001C25.8 17.4925 25.4716 16.4098 24.8562 15.4889C24.2409 14.568 23.3663 13.8502 22.343 13.4263C21.3198 13.0025 20.1938 12.8916 19.1075 13.1077C18.0212 13.3237 17.0234 13.8571 16.2402 14.6403C15.457 15.4234 14.9237 16.4213 14.7076 17.5076C14.4915 18.5938 14.6024 19.7198 15.0263 20.7431C15.4501 21.7664 16.1679 22.641 17.0888 23.2563C18.0097 23.8716 19.0924 24.2001 20.2 24.2001C21.6852 24.2001 23.1096 23.6101 24.1598 22.5599C25.21 21.5097 25.8 20.0853 25.8 18.6001ZM31.304 27.4001C32.2876 28.1613 33.0924 29.1288 33.6619 30.2345C34.2313 31.3402 34.5515 32.5573 34.6 33.8001V37.0001H41V33.8001C41 33.8001 41 27.9921 31.304 27.4001ZM29.8 13.0001C28.6988 12.9949 27.6221 13.3241 26.712 13.9441C27.6839 15.302 28.2065 16.9301 28.2065 18.6001C28.2065 20.27 27.6839 21.8981 26.712 23.2561C27.6221 23.876 28.6988 24.2052 29.8 24.2001C31.2852 24.2001 32.7096 23.6101 33.7598 22.5599C34.81 21.5097 35.4 20.0853 35.4 18.6001C35.4 17.1148 34.81 15.6905 33.7598 14.6403C32.7096 13.5901 31.2852 13.0001 29.8 13.0001Z" fill="#9E71CE"/>
</svg>
