<svg width="50" height="50" viewBox="0 0 50 50" fill="none" xmlns="http://www.w3.org/2000/svg">
<path d="M23.9582 37.0208H26.0415V27.2396L30.4165 31.6146L31.8915 30.1292L24.9998 23.2375L18.1082 30.1292L19.5957 31.6021L23.9582 27.2396V37.0208ZM13.7832 43.75C12.8234 43.75 12.0228 43.4292 11.3811 42.7875C10.7394 42.1458 10.4179 41.3451 10.4165 40.3854V9.61458C10.4165 8.65625 10.738 7.85625 11.3811 7.21458C12.0241 6.57292 12.8248 6.25139 13.7832 6.25H30.2082L39.5832 15.625V40.3854C39.5832 41.3438 39.2623 42.1444 38.6207 42.7875C37.979 43.4306 37.1776 43.7514 36.2165 43.75H13.7832ZM29.1665 16.6667H37.4998L29.1665 8.33333V16.6667Z" fill="#E04343"/>
</svg>
